<svg width="96" height="87" viewBox="0 0 96 87" fill="none" xmlns="http://www.w3.org/2000/svg">
<path d="M90 72H6C2.7 72 0 69.3 0 66V6C0 2.7 2.7 0 6 0H90C93.3 0 96 2.7 96 6V66C96 69.3 93.3 72 90 72ZM6 3C4.35 3 3 4.35 3 6V66C3 67.65 4.35 69 6 69H90C91.65 69 93 67.65 93 66V6C93 4.35 91.65 3 90 3H6Z" fill="#363F40"/>
<path d="M58.4705 70.2067L55.5287 70.795L58.5291 85.7982L61.4709 85.2099L58.4705 70.2067Z" fill="#363F40"/>
<path d="M37.5274 70.2056L34.524 85.2073L37.4655 85.7962L40.4689 70.7945L37.5274 70.2056Z" fill="#363F40"/>
<path d="M67.5 84H28.5V87H67.5V84Z" fill="#363F40"/>
<path d="M49.5 63H46.5V66H49.5V63Z" fill="#363F40"/>
<path d="M49.5 48H46.5V51H49.5V48Z" fill="#363F40"/>
<path d="M55.5 48H52.5V51H55.5V48Z" fill="#363F40"/>
<path d="M61.5 48H58.5V51H61.5V48Z" fill="#363F40"/>
<path d="M43.5 48H40.5V51H43.5V48Z" fill="#363F40"/>
<path d="M37.5 48H34.5V51H37.5V48Z" fill="#363F40"/>
<path d="M90 60H6V6H90V60ZM9 57H87V9H9V57Z" fill="#363F40"/>
<path d="M17.4873 36H14.8066V23.1504H22.1719V25.3828H17.4873V28.6963H21.8467V30.9199H17.4873V36ZM34.1445 23.1504V31.4648C34.1445 32.4141 33.9307 33.2461 33.5029 33.9609C33.0811 34.6758 32.4688 35.2236 31.666 35.6045C30.8633 35.9854 29.9141 36.1758 28.8184 36.1758C27.166 36.1758 25.8828 35.7539 24.9688 34.9102C24.0547 34.0605 23.5977 32.9004 23.5977 31.4297V23.1504H26.3135V31.0166C26.3135 32.0068 26.5127 32.7334 26.9111 33.1963C27.3096 33.6592 27.9688 33.8906 28.8887 33.8906C29.7793 33.8906 30.4238 33.6592 30.8223 33.1963C31.2266 32.7275 31.4287 31.9951 31.4287 30.999V23.1504H34.1445ZM36.291 36V23.1504H39.0156V33.75H44.2275V36H36.291ZM45.4688 36V23.1504H48.1934V33.75H53.4053V36H45.4688ZM68.8516 36H66.1357V30.4541H61.0469V36H58.3223V23.1504H61.0469V28.1865H66.1357V23.1504H68.8516V36ZM81.7646 29.4521C81.7646 31.5674 81.1611 33.1875 79.9541 34.3125C78.7529 35.4375 77.0156 36 74.7422 36H71.1035V23.1504H75.1377C77.2354 23.1504 78.8643 23.7041 80.0244 24.8115C81.1846 25.9189 81.7646 27.4658 81.7646 29.4521ZM78.9346 29.5225C78.9346 26.7627 77.7158 25.3828 75.2783 25.3828H73.8281V33.75H74.9971C77.6221 33.75 78.9346 32.3408 78.9346 29.5225Z" fill="black"/>
</svg>
