<svg width="96" height="96" viewBox="0 0 96 96" fill="none" xmlns="http://www.w3.org/2000/svg">
<path d="M48 55.5C43.8 55.5 40.5 52.2 40.5 48C40.5 43.8 43.8 40.5 48 40.5C52.2 40.5 55.5 43.8 55.5 48C55.5 52.2 52.2 55.5 48 55.5ZM48 43.5C45.45 43.5 43.5 45.45 43.5 48C43.5 50.55 45.45 52.5 48 52.5C50.55 52.5 52.5 50.55 52.5 48C52.5 45.45 50.55 43.5 48 43.5Z" fill="#363F40"/>
<path d="M72 46.5H54V49.5H72V46.5Z" fill="#363F40"/>
<path d="M49.5 24H46.5V42H49.5V24Z" fill="#363F40"/>
<path d="M49.5 81H46.5V94.5H49.5V81Z" fill="#363F40"/>
<path d="M49.5 1.5H46.5V15H49.5V1.5Z" fill="#363F40"/>
<path d="M15 46.5H1.5V49.5H15V46.5Z" fill="#363F40"/>
<path d="M94.5 46.5H81V49.5H94.5V46.5Z" fill="#363F40"/>
<path d="M84 69H81V72H84V69Z" fill="#363F40"/>
<path d="M84 24H81V27H84V24Z" fill="#363F40"/>
<path d="M15 69H12V72H15V69Z" fill="#363F40"/>
<path d="M15 24H12V27H15V24Z" fill="#363F40"/>
<path d="M72 81H69V84H72V81Z" fill="#363F40"/>
<path d="M27 81H24V84H27V81Z" fill="#363F40"/>
<path d="M72 12H69V15H72V12Z" fill="#363F40"/>
<path d="M27 12H24V15H27V12Z" fill="#363F40"/>
<path d="M55.5 64.5H52.5V67.5H55.5V64.5Z" fill="#363F40"/>
<path d="M49.5 64.5H46.5V67.5H49.5V64.5Z" fill="#363F40"/>
<path d="M43.5 64.5H40.5V67.5H43.5V64.5Z" fill="#363F40"/>
<path d="M91.5 96H4.5C1.95 96 0 94.05 0 91.5V4.5C0 1.95 1.95 0 4.5 0H91.5C94.05 0 96 1.95 96 4.5V91.5C96 94.05 94.05 96 91.5 96ZM4.5 3C3.6 3 3 3.6 3 4.5V91.5C3 92.4 3.6 93 4.5 93H91.5C92.4 93 93 92.4 93 91.5V4.5C93 3.6 92.4 3 91.5 3H4.5Z" fill="#363F40"/>
<path d="M9 43.5H6V10.5C6 7.95 7.95 6 10.5 6H43.5V9H10.5C9.6 9 9 9.6 9 10.5V43.5Z" fill="#363F40"/>
<path d="M43.5 90H10.5C7.95 90 6 88.05 6 85.5V52.5H9V85.5C9 86.4 9.6 87 10.5 87H43.5V90Z" fill="#363F40"/>
<path d="M85.5 90H52.5V87H85.5C86.4 87 87 86.4 87 85.5V52.5H90V85.5C90 88.05 88.05 90 85.5 90Z" fill="#363F40"/>
<path d="M90 43.5H87V10.5C87 9.6 86.4 9 85.5 9H52.5V6H85.5C88.05 6 90 7.95 90 10.5V43.5Z" fill="#363F40"/>
</svg>
