<svg width="87" height="96" viewBox="0 0 87 96" fill="none" xmlns="http://www.w3.org/2000/svg">
<path d="M52.5 96H1.5C0.6 96 0 95.4 0 94.5V6C0 5.55 0.15 5.25 0.45 4.95L4.95 0.45C5.55 -0.15 6.45 -0.15 7.05 0.45L10.5 3.9L13.95 0.45C14.55 -0.15 15.45 -0.15 16.05 0.45L19.5 3.9L22.95 0.45C23.55 -0.15 24.45 -0.15 25.05 0.45L28.5 3.9L31.95 0.45C32.55 -0.15 33.45 -0.15 34.05 0.45L37.5 3.9L40.95 0.45C41.55 -0.15 42.45 -0.15 43.05 0.45L46.5 3.9L49.95 0.45C50.55 -0.15 51.45 -0.15 52.05 0.45L55.5 3.9L58.95 0.45C59.55 -0.15 60.45 -0.15 61.05 0.45L65.55 4.95C65.85 5.25 66 5.55 66 6V82.5C66 82.95 65.85 83.25 65.55 83.55L53.55 95.55C53.25 95.85 52.95 96 52.5 96ZM3 93H51.9L63 81.9V6.6L60 3.6L56.55 7.05C55.95 7.65 55.05 7.65 54.45 7.05L51 3.6L47.55 7.05C46.95 7.65 46.05 7.65 45.45 7.05L42 3.6L38.55 7.05C37.95 7.65 37.05 7.65 36.45 7.05L33 3.6L29.55 7.05C28.95 7.65 28.05 7.65 27.45 7.05L24 3.6L20.55 7.05C19.95 7.65 19.05 7.65 18.45 7.05L15 3.6L11.55 7.05C10.95 7.65 10.05 7.65 9.45 7.05L6 3.6L3 6.6V93Z" fill="#363F40"/>
<path d="M30 40.5H15V43.5H30V40.5Z" fill="#363F40"/>
<path d="M12 40.5H9V43.5H12V40.5Z" fill="#363F40"/>
<path d="M30 46.5H15V49.5H30V46.5Z" fill="#363F40"/>
<path d="M12 46.5H9V49.5H12V46.5Z" fill="#363F40"/>
<path d="M30 52.5H15V55.5H30V52.5Z" fill="#363F40"/>
<path d="M12 52.5H9V55.5H12V52.5Z" fill="#363F40"/>
<path d="M30 58.5H15V61.5H30V58.5Z" fill="#363F40"/>
<path d="M12 58.5H9V61.5H12V58.5Z" fill="#363F40"/>
<path d="M57 40.5H42V43.5H57V40.5Z" fill="#363F40"/>
<path d="M39 40.5H36V43.5H39V40.5Z" fill="#363F40"/>
<path d="M57 46.5H42V49.5H57V46.5Z" fill="#363F40"/>
<path d="M39 46.5H36V49.5H39V46.5Z" fill="#363F40"/>
<path d="M57 52.5H42V55.5H57V52.5Z" fill="#363F40"/>
<path d="M39 52.5H36V55.5H39V52.5Z" fill="#363F40"/>
<path d="M57 58.5H42V61.5H57V58.5Z" fill="#363F40"/>
<path d="M39 58.5H36V61.5H39V58.5Z" fill="#363F40"/>
<path d="M30 64.5H15V67.5H30V64.5Z" fill="#363F40"/>
<path d="M12 64.5H9V67.5H12V64.5Z" fill="#363F40"/>
<path d="M30 70.5H15V73.5H30V70.5Z" fill="#363F40"/>
<path d="M12 70.5H9V73.5H12V70.5Z" fill="#363F40"/>
<path d="M81 15H78V79.5H81V15Z" fill="#363F40"/>
<path d="M85.5 78H73.5V81H85.5V78Z" fill="#363F40"/>
<path d="M85.5 13.5H73.5V16.5H85.5V13.5Z" fill="#363F40"/>
<path d="M79.5 96C78.9 96 78.3 95.7 78.15 95.1L72.15 80.1C72.15 79.95 72 79.8 72 79.5V6C72 2.7 74.7 0 78 0H81C84.3 0 87 2.7 87 6V79.5C87 79.65 87 79.95 86.85 80.1L80.85 95.1C80.7 95.7 80.1 96 79.5 96ZM75 79.2L79.5 90.45L84 79.2V6C84 4.35 82.65 3 81 3H78C76.35 3 75 4.35 75 6V79.2Z" fill="#363F40"/>
<path d="M21 19.5H18V28.5H21V19.5Z" fill="#363F40"/>
<path d="M24 22.5H15V25.5H24V22.5Z" fill="#363F40"/>
<path d="M51 22.5H42V25.5H51V22.5Z" fill="#363F40"/>
<path d="M54 94.5H51V82.5C51 81.6 51.6 81 52.5 81H64.5V84H54V94.5Z" fill="#363F40"/>
<path d="M19.5 34.5C13.65 34.5 9 29.85 9 24C9 18.15 13.65 13.5 19.5 13.5C25.35 13.5 30 18.15 30 24C30 29.85 25.35 34.5 19.5 34.5ZM19.5 16.5C15.3 16.5 12 19.8 12 24C12 28.2 15.3 31.5 19.5 31.5C23.7 31.5 27 28.2 27 24C27 19.8 23.7 16.5 19.5 16.5Z" fill="#363F40"/>
<path d="M46.5 34.5C40.65 34.5 36 29.85 36 24C36 18.15 40.65 13.5 46.5 13.5C52.35 13.5 57 18.15 57 24C57 29.85 52.35 34.5 46.5 34.5ZM46.5 16.5C42.3 16.5 39 19.8 39 24C39 28.2 42.3 31.5 46.5 31.5C50.7 31.5 54 28.2 54 24C54 19.8 50.7 16.5 46.5 16.5Z" fill="#363F40"/>
</svg>
