<svg width="97" height="96" viewBox="0 0 97 96" fill="none" xmlns="http://www.w3.org/2000/svg">
<path d="M77.1 32.8125L75.9 30.1125L90.75 23.9625L48 3.1125L5.1 23.8125L19.95 29.9625L18.75 32.6625L0.75 25.1625C0.45 25.1625 0 24.5625 0 23.9625C0 23.3625 0.3 22.7625 0.9 22.6125L47.4 0.1125C47.85 -0.0375 48.3 -0.0375 48.75 0.1125L95.25 22.6125C95.85 22.9125 96.15 23.3625 96.15 23.9625C96.15 24.5625 95.7 25.0125 95.25 25.3125L77.1 32.8125Z" fill="#363F40"/>
<path d="M78 49.4625H75V31.4625C75 28.3125 64.8 23.9625 48 23.9625C31.2 23.9625 21 28.3125 21 31.4625V49.4625H18V31.4625C18 24.7125 33.45 20.9625 48 20.9625C62.55 20.9625 78 24.7125 78 31.4625V49.4625Z" fill="#363F40"/>
<path d="M9 26.9625H6V49.4625H9V26.9625Z" fill="#363F40"/>
<path d="M7.5 59.9625C4.2 59.9625 1.5 57.2625 1.5 53.9625C1.5 50.6625 4.2 47.9625 7.5 47.9625C10.8 47.9625 13.5 50.6625 13.5 53.9625C13.5 57.2625 10.8 59.9625 7.5 59.9625ZM7.5 50.9625C5.85 50.9625 4.5 52.3125 4.5 53.9625C4.5 55.6125 5.85 56.9625 7.5 56.9625C9.15 56.9625 10.5 55.6125 10.5 53.9625C10.5 52.3125 9.15 50.9625 7.5 50.9625Z" fill="#363F40"/>
<path d="M54 95.9625H42C39.45 95.9625 37.5 94.0125 37.5 91.4625V70.4625C37.5 67.9125 39.45 65.9625 42 65.9625H54C56.55 65.9625 58.5 67.9125 58.5 70.4625V91.4625C58.5 94.0125 56.55 95.9625 54 95.9625ZM42 68.9625C41.1 68.9625 40.5 69.5625 40.5 70.4625V91.4625C40.5 92.3625 41.1 92.9625 42 92.9625H54C54.9 92.9625 55.5 92.3625 55.5 91.4625V70.4625C55.5 69.5625 54.9 68.9625 54 68.9625H42Z" fill="#363F40"/>
<path d="M49.5 71.9625H46.5V77.9625H49.5V71.9625Z" fill="#363F40"/>
<path d="M49.5 67.4625H46.5V62.9625C46.5 59.6625 49.2 56.9625 52.5 56.9625H60C61.65 56.9625 63 55.6125 63 53.9625C63 52.3125 61.65 50.9625 60 50.9625H36C32.7 50.9625 30 48.2625 30 44.9625C30 41.6625 32.7 38.9625 36 38.9625H43.5C45.15 38.9625 46.5 37.6125 46.5 35.9625V26.9625H49.5V35.9625C49.5 39.2625 46.8 41.9625 43.5 41.9625H36C34.35 41.9625 33 43.3125 33 44.9625C33 46.6125 34.35 47.9625 36 47.9625H60C63.3 47.9625 66 50.6625 66 53.9625C66 57.2625 63.3 59.9625 60 59.9625H52.5C50.85 59.9625 49.5 61.3125 49.5 62.9625V67.4625Z" fill="#363F40"/>
<path d="M70.95 56.3625L69.9 53.5125C73.05 52.1625 75 50.6625 75 49.3125C75 46.3125 66 41.8125 52.5 41.8125V38.8125C66.6 38.8125 78 43.4625 78 49.3125C78 51.4125 76.8 54.1125 70.95 56.3625Z" fill="#363F40"/>
<path d="M43.5 59.9625C29.4 59.9625 18 55.3125 18 49.4625C18 47.6625 19.2 44.9625 24.75 42.7125L25.95 45.4125C22.95 46.6125 21.15 48.1125 21.15 49.4625C21.15 52.4625 30.15 56.9625 43.65 56.9625V59.9625H43.5Z" fill="#363F40"/>
<path d="M64.5 85.4625H61.5V88.4625H64.5V85.4625Z" fill="#363F40"/>
<path d="M64.5 79.4625H61.5V82.4625H64.5V79.4625Z" fill="#363F40"/>
<path d="M64.5 73.4625H61.5V76.4625H64.5V73.4625Z" fill="#363F40"/>
<path d="M34.5 85.4625H31.5V88.4625H34.5V85.4625Z" fill="#363F40"/>
<path d="M34.5 79.4625H31.5V82.4625H34.5V79.4625Z" fill="#363F40"/>
<path d="M34.5 73.4625H31.5V76.4625H34.5V73.4625Z" fill="#363F40"/>
</svg>
