<svg width="96" height="96" viewBox="0 0 96 96" fill="none" xmlns="http://www.w3.org/2000/svg">
<path d="M96 24H6V27H96V24Z" fill="#363F40"/>
<path d="M83.1 33H18.9L10.95 26.7C10.35 26.25 10.2 25.2 10.65 24.6C11.1 24 12.15 23.85 12.75 24.3L19.8 30H81.75L88.8 24.3C89.4 23.85 90.45 23.85 90.8999 24.6C91.35 25.2 91.35 26.25 90.6 26.7L83.1 33Z" fill="#363F40"/>
<path d="M39.0001 79.35C38.7001 79.35 38.2501 79.2 38.1001 78.9C37.6501 78.45 37.6501 77.55 38.1001 76.95L58.9501 56.1L67.8001 42.9L72.3001 31.05C72.6001 30.3 73.3501 30 73.9501 30.3C74.7001 30.6 75.0001 31.35 74.7001 31.95L70.0501 44.25L60.9001 57.9L39.9001 78.9C39.7501 79.2 39.3001 79.35 39.0001 79.35Z" fill="#363F40"/>
<path d="M24.0001 64.5C23.8501 64.5 23.8501 64.5 23.7001 64.5C22.9501 64.35 22.3501 63.6 22.5001 62.7L24.1501 53.25L28.5001 44.55V37.65L27.0001 31.8C26.8501 31.05 27.3001 30.15 28.0501 30C28.8001 29.85 29.7001 30.3 29.8501 31.05L31.3501 37.35V45.15L26.8501 54.3L25.3501 63.15C25.3501 64.05 24.7501 64.5 24.0001 64.5Z" fill="#363F40"/>
<path d="M46.3499 51.15L39.1499 47.55L37.4999 37.8L35.9999 31.95C35.8499 31.2 36.2999 30.3 37.0499 30.15C37.7999 30 38.6999 30.45 38.8499 31.2L40.3499 37.2L41.6999 45.6L46.4999 48L51.5999 46.65L58.6499 41.1L64.4999 30.9C64.9499 30.15 65.8499 30 66.5999 30.3C67.3499 30.75 67.4999 31.65 67.1999 32.4L61.0499 43.2L53.0999 49.65L46.3499 51.15Z" fill="#363F40"/>
<path d="M1.5 84C1.05 84 0.75 83.85 0.45 83.55C-0.15 82.95 -0.15 82.05 0.45 81.45L10.95 70.95C11.55 70.35 12.45 70.35 13.05 70.95C13.65 71.55 13.65 72.45 13.05 73.05L2.55 83.55C2.25 83.85 1.95 84 1.5 84Z" fill="#363F40"/>
<path d="M25.5 96C25.05 96 24.75 95.85 24.45 95.55C23.85 94.95 23.85 94.05 24.45 93.45L28.95 88.95C29.55 88.35 30.45 88.35 31.05 88.95C31.65 89.55 31.65 90.45 31.05 91.05L26.55 95.55C26.25 95.85 25.95 96 25.5 96Z" fill="#363F40"/>
<path d="M31.5 93C31.05 93 30.75 92.85 30.45 92.55L9.45 71.55C8.85 70.95 8.85 70.05 9.45 69.45L19.95 58.95C20.55 58.35 21.45 58.35 22.05 58.95L43.05 79.95C43.65 80.55 43.65 81.45 43.05 82.05L32.55 92.55C32.25 92.85 31.95 93 31.5 93ZM12.6 70.5L31.5 89.4L39.9 81L21 62.1L12.6 70.5Z" fill="#363F40"/>
<path d="M33 82.5C32.55 82.5 32.25 82.35 31.95 82.05L28.95 79.05C28.35 78.45 28.35 77.55 28.95 76.95C29.55 76.35 30.45 76.35 31.05 76.95L34.05 79.95C34.65 80.55 34.65 81.45 34.05 82.05C33.75 82.35 33.45 82.5 33 82.5Z" fill="#363F40"/>
<path d="M46.5 50.9999C46.05 50.9999 45.75 50.8499 45.45 50.5499C44.85 49.9499 44.85 49.0499 45.45 48.4499L52.8 41.0999L57.15 30.8999C57.45 30.1499 58.35 29.8499 59.1 30.1499C59.85 30.4499 60.15 31.3499 59.85 32.0999L55.2 42.8999L47.55 50.5499C47.25 50.8499 46.95 50.9999 46.5 50.9999Z" fill="#363F40"/>
<path d="M20.583 10.9621L18.4617 13.0834L22.9164 17.5382L25.0377 15.4169L20.583 10.9621Z" fill="#363F40"/>
<path d="M35.8648 2.378L33.1816 3.7196L36.2002 9.7568L38.8834 8.4152L35.8648 2.378Z" fill="#363F40"/>
<path d="M81.4162 10.9624L76.9614 15.4171L79.0827 17.5384L83.5375 13.0837L81.4162 10.9624Z" fill="#363F40"/>
<path d="M66.2046 2.24411L63.1853 8.28131L65.8685 9.62321L68.8878 3.58601L66.2046 2.24411Z" fill="#363F40"/>
<path d="M52.5 0H49.5V6H52.5V0Z" fill="#363F40"/>
</svg>
