<svg width="90" height="96" viewBox="0 0 90 96" fill="none" xmlns="http://www.w3.org/2000/svg">
<path d="M30 36H18C14.7 36 12 33.3 12 30V4.5H15V30C15 31.65 16.35 33 18 33H30V36Z" fill="#363F40"/>
<path d="M84 96H6C2.7 96 0 93.3 0 90V9C0 5.7 2.7 3 6 3H21V6H6C4.35 6 3 7.35 3 9V90C3 91.65 4.35 93 6 93H84C85.65 93 87 91.65 87 90V17.1L75.9 6H70.5V3H77.1L90 15.9V90C90 93.3 87.3 96 84 96Z" fill="#363F40"/>
<path d="M66 36H30C26.7 36 24 33.3 24 30V0H72V30C72 33.3 69.3 36 66 36ZM27 3V30C27 31.65 28.35 33 30 33H66C67.65 33 69 31.65 69 30V3H27Z" fill="#363F40"/>
<path d="M78 90H75V54C75 52.35 73.65 51 72 51H18C16.35 51 15 52.35 15 54V90H12V54C12 50.7 14.7 48 18 48H72C75.3 48 78 50.7 78 54V90Z" fill="#363F40"/>
<path d="M9 87H6V90H9V87Z" fill="#363F40"/>
<path d="M84 87H81V90H84V87Z" fill="#363F40"/>
<path d="M69 66H21V69H69V66Z" fill="#363F40"/>
<path d="M69 72H21V75H69V72Z" fill="#363F40"/>
<path d="M69 78H21V81H69V78Z" fill="#363F40"/>
<path d="M69 84H21V87H69V84Z" fill="#363F40"/>
<path d="M60 30H57C55.35 30 54 28.65 54 27V9C54 7.35 55.35 6 57 6H60C61.65 6 63 7.35 63 9V27C63 28.65 61.65 30 60 30ZM57 9V27H60V9H57Z" fill="#363F40"/>
<path d="M46.5 57H43.5V60H46.5V57Z" fill="#363F40"/>
<path d="M52.5 57H49.5V60H52.5V57Z" fill="#363F40"/>
<path d="M40.5 57H37.5V60H40.5V57Z" fill="#363F40"/>
</svg>
