<svg width="90" height="96" viewBox="0 0 90 96" fill="none" xmlns="http://www.w3.org/2000/svg">
<path d="M55.05 47.55L52.95 45.45L62.4 36H85.5C86.4 36 87 35.4 87 34.5V4.5C87 3.6 86.4 3 85.5 3H37.5C36.6 3 36 3.6 36 4.5V18H33V4.5C33 1.95 34.95 0 37.5 0H85.5C88.05 0 90 1.95 90 4.5V34.5C90 37.05 88.05 39 85.5 39H63.6L55.05 47.55Z" fill="#363F40"/>
<path d="M57 18H54V21H57V18Z" fill="#363F40"/>
<path d="M63 18H60V21H63V18Z" fill="#363F40"/>
<path d="M69 18H66V21H69V18Z" fill="#363F40"/>
<path d="M3 96H0V85.5C0 73.5 6.6 70.95 13.8 68.25C16.35 67.2 19.05 66.3 21.9 64.65L23.4 67.2C20.55 68.85 17.55 70.05 15 70.95C7.65 73.8 3 75.6 3 85.5V96Z" fill="#363F40"/>
<path d="M69 96H66V85.5C66 75.6 61.35 73.8 54.15 71.1C51.6 70.05 48.6 69 45.75 67.35L47.25 64.8C49.95 66.3 52.65 67.35 55.35 68.4C62.4 70.95 69 73.5 69 85.5V96Z" fill="#363F40"/>
<path d="M40.7999 73.8L34.4999 70.65L28.1999 73.8L20.5499 66.15L24.7499 59.85L34.4999 61.5L44.2499 59.85L48.4499 66.15L40.7999 73.8ZM34.4999 67.35L40.1999 70.2L44.5499 65.85L42.7499 63.15L34.4999 64.5L26.2499 63.15L24.4499 65.85L28.7999 70.2L34.4999 67.35Z" fill="#363F40"/>
<path d="M43.5 55.5H40.5V61.5H43.5V55.5Z" fill="#363F40"/>
<path d="M28.5 55.5H25.5V61.5H28.5V55.5Z" fill="#363F40"/>
<path d="M36 81H33V84H36V81Z" fill="#363F40"/>
<path d="M36 75H33V78H36V75Z" fill="#363F40"/>
<path d="M34.5 58.5C34.35 58.5 29.55 58.5 26.4 56.85L26.25 56.7C26.1 56.55 21.15 53.25 19.65 42.15V42V36C19.65 26.1 24.75 21 34.65 21C44.55 21 49.65 26.1 49.65 36V42.15C48 53.25 43.2 56.55 43.05 56.7L42.9 56.85C39.45 58.5 34.65 58.5 34.5 58.5ZM27.75 54.15C30.45 55.5 34.35 55.5 34.5 55.5C34.65 55.5 38.55 55.5 41.25 54.15C41.7 53.85 45.3 50.7 46.5 41.85V36C46.5 27.75 42.75 24 34.5 24C26.25 24 22.5 27.75 22.5 36V41.85C23.85 50.7 27.3 53.85 27.75 54.15Z" fill="#363F40"/>
<path d="M41.9999 40.65L26.9999 34.65L21.5999 37.35L20.3999 34.65L26.9999 31.35L41.9999 37.35L47.3999 34.65L48.5999 37.35L41.9999 40.65Z" fill="#363F40"/>
<path d="M15 87H12V96H15V87Z" fill="#363F40"/>
<path d="M57 87H54V96H57V87Z" fill="#363F40"/>
</svg>
